<svg xmlns="http://www.w3.org/2000/svg" width="16.225" height="16" viewBox="0 0 16.225 16">
  <g id="Icon_ionic-ios-chatboxes" data-name="Icon ionic-ios-chatboxes" transform="translate(-7.791 -7.987)">
    <path id="Path_1" data-name="Path 1" d="M21.945,7.987H9.867a2.079,2.079,0,0,0-2.077,2.077v8.41a2.075,2.075,0,0,0,2.077,2.071h6.911a.6.6,0,0,1,.414.174l3.434,3.167c.191.185.507.109.507-.158V20.97c0-.327.207-.431.534-.431h.055a2.269,2.269,0,0,0,2.295-2.071v-8.4A2.068,2.068,0,0,0,21.945,7.987Z" transform="translate(0 0)" fill="#fff"/>
  </g>
</svg>
