<svg xmlns="http://www.w3.org/2000/svg" width="18.962" height="16" viewBox="0 0 18.962 16">
  <path id="Icon_awesome-tasks" data-name="Icon awesome-tasks" d="M5.17,1.629a.444.444,0,0,0-.63,0L2.182,3.974l-.841-.819a.444.444,0,0,0-.63,0l-.581.582a.444.444,0,0,0,0,.63L1.893,6.122a.473.473,0,0,0,.652,0l.577-.578L5.8,2.87a.448.448,0,0,0,0-.63Zm0,5.9a.444.444,0,0,0-.63,0L2.182,9.885l-.841-.818a.444.444,0,0,0-.63,0l-.581.581a.444.444,0,0,0,0,.63l1.758,1.759a.473.473,0,0,0,.652,0l.581-.581L5.8,8.78a.444.444,0,0,0,0-.626Zm-2.8,6.418a1.778,1.778,0,1,0,0,3.555,1.778,1.778,0,1,0,0-3.555Zm16,.593H7.7a.593.593,0,0,0-.593.593v1.185a.593.593,0,0,0,.593.593H18.369a.593.593,0,0,0,.593-.593V15.128A.593.593,0,0,0,18.369,14.536Zm0-11.851H7.7a.593.593,0,0,0-.593.593V4.462a.593.593,0,0,0,.593.593H18.369a.593.593,0,0,0,.593-.593V3.277A.593.593,0,0,0,18.369,2.685Zm0,5.926H7.7a.593.593,0,0,0-.593.593v1.185a.593.593,0,0,0,.593.593H18.369a.593.593,0,0,0,.593-.593V9.2A.593.593,0,0,0,18.369,8.61Z" transform="translate(0 -1.499)" fill="#fff"/>
</svg>
