<svg xmlns="http://www.w3.org/2000/svg" width="20" height="16" viewBox="0 0 20 16">
  <path id="Icon_awesome-solar-panel" data-name="Icon awesome-solar-panel" d="M13.5,14,12,14V13H8v1.007l-1.5,0a.5.5,0,0,0-.5.5L6,15.5a.5.5,0,0,0,.5.5l7-.008a.5.5,0,0,0,.5-.5V14.5a.5.5,0,0,0-.5-.5ZM18.287.836a1.013,1.013,0,0,0-1-.836H2.717a1.013,1.013,0,0,0-1,.836C-.1,11.536,0,10.877,0,11A1.01,1.01,0,0,0,1.02,12H18.98A1.01,1.01,0,0,0,20,11.007c0-.127.1.53-1.711-10.171ZM8.12,2h3.76l.305,3H7.814ZM5.771,10H2.222l.594-3.5H6.127ZM6.28,5H3.07l.509-3H6.585L6.28,5Zm1.026,5,.356-3.5h4.677l.356,3.5Zm6.109-8h3.006l.509,3H13.72l-.305-3Zm.814,8-.356-3.5h3.312l.594,3.5H14.229Z" transform="translate(0)" fill="#fff"/>
</svg>
